# xmcd
#
# Track frame offsets: 
#        150
#        10992
#        26960
#        40775
#        52285
#        64740
#        80082
#        92240
#
# Disc length: 1303 seconds
#
# Revision: 0
# Processed by: cddbd v1.5.2PL0 Copyright (c) Steve Scherf et al.
# Submitted via: ExactAudioCopy v0.99pb5
#
DISCID=6d051508
DTITLE=Jim Campilongo - Almost Christmas
DYEAR=2008
DGENRE=Country
TTITLE0=Jingle Bells
TTITLE1=Old Toy Trains
TTITLE2=Blue Christmas
TTITLE3=Mom and Dad's Waltz
TTITLE4=Christmas Guitarlongo
TTITLE5=It Came Upon a Midnight Clear
TTITLE6=All I Want For Christmas Is You
TTITLE7=Ladies' Choice
EXTD=
EXTT0=
EXTT1=
EXTT2=
EXTT3=
EXTT4=
EXTT5=
EXTT6=
EXTT7=
PLAYORDER=
